<?xml version="1.0" encoding="UTF-8"?>
<svg width="64px" height="62px" viewBox="0 0 64 62" version="1.1" xmlns="http://www.w3.org/2000/svg" xmlns:xlink="http://www.w3.org/1999/xlink">
    <!-- Generator: Sketch 52.4 (67378) - http://www.bohemiancoding.com/sketch -->
    <title>noun_House_2453799</title>
    <desc>Created with Sketch.</desc>
    <g id="Symbols" stroke="none" stroke-width="1" fill="none" fill-rule="evenodd">
        <g id="noun_House_2453799" fill="#000000" fill-rule="nonzero">
            <g id="Group">
                <path d="M19,51.498 L25,51.498 C25.553,51.498 26,51.051 26,50.498 L26,44.498 C26,43.945 25.553,43.498 25,43.498 L19,43.498 C18.447,43.498 18,43.945 18,44.498 L18,50.498 C18,51.051 18.447,51.498 19,51.498 Z M20,45.498 L24,45.498 L24,49.498 L20,49.498 L20,45.498 Z" id="Shape"></path>
                <path d="M39,51.498 L45,51.498 C45.553,51.498 46,51.051 46,50.498 L46,44.498 C46,43.945 45.553,43.498 45,43.498 L39,43.498 C38.447,43.498 38,43.945 38,44.498 L38,50.498 C38,51.051 38.447,51.498 39,51.498 Z M40,45.498 L44,45.498 L44,49.498 L40,49.498 L40,45.498 Z" id="Shape"></path>
                <path d="M32,42.498 C34.206,42.498 36,40.704 36,38.498 C36,36.292 34.206,34.498 32,34.498 C29.794,34.498 28,36.292 28,38.498 C28,40.704 29.794,42.498 32,42.498 Z M32,36.498 C33.103,36.498 34,37.395 34,38.498 C34,39.601 33.103,40.498 32,40.498 C30.897,40.498 30,39.601 30,38.498 C30,37.395 30.897,36.498 32,36.498 Z" id="Shape"></path>
                <path d="M63,59.498 L62,59.498 L62,57.498 C62,55.676 60.823,54.498 59.001,54.498 C58.466,54.498 57.964,54.639 57.528,54.885 C56.995,54.052 56.06,53.498 55,53.498 C53.94,53.498 53.005,54.052 52.472,54.885 C52.036,54.639 51.534,54.498 50.999,54.498 C50.647,54.498 50.314,54.57 50,54.682 L50,41.391 L51.455,42.337 C51.488,42.358 51.524,42.367 51.559,42.385 C51.59,42.401 51.621,42.416 51.655,42.429 C51.768,42.47 51.884,42.498 52,42.498 C52,42.498 52.001,42.498 52.002,42.498 C52.12,42.497 52.235,42.47 52.347,42.428 C52.37,42.419 52.394,42.412 52.416,42.402 C52.517,42.356 52.609,42.296 52.691,42.216 C52.707,42.201 52.717,42.184 52.732,42.168 C52.769,42.128 52.808,42.09 52.838,42.043 C52.855,42.018 52.856,41.989 52.869,41.963 C52.901,41.904 52.923,41.844 52.942,41.779 C52.962,41.713 52.976,41.648 52.982,41.581 C52.986,41.552 53,41.527 53,41.498 L53,37.498 C53,37.463 52.983,37.434 52.98,37.399 C52.972,37.331 52.96,37.266 52.94,37.2 C52.919,37.138 52.896,37.082 52.866,37.026 C52.836,36.971 52.803,36.922 52.762,36.873 C52.718,36.819 52.67,36.773 52.616,36.729 C52.589,36.708 52.573,36.678 52.544,36.659 L50.015,35.015 L50.015,24.51 C50.015,24.509 50.014,24.507 50.014,24.506 C50.014,24.505 50.015,24.503 50.015,24.502 C50.015,21.745 47.772,19.502 45.015,19.502 C44.997,19.502 44.984,19.511 44.966,19.512 L19.018,19.512 C17.364,19.512 16.018,18.166 16.018,16.512 C16.018,14.858 17.364,13.512 19.018,13.512 L32.02,13.512 C32.047,13.512 32.071,13.498 32.098,13.496 C34.518,13.458 36.518,11.695 36.931,9.383 C38.69,8.962 40.004,7.388 40.004,5.502 L40.004,3.502 C40.004,2.949 39.557,2.502 39.004,2.502 L39.004,1.502 C39.004,0.949 38.557,0.502 38.004,0.502 C37.451,0.502 37.004,0.949 37.004,1.502 L37.004,2.502 L35,2.502 L35,1.502 C35,0.949 34.553,0.502 34,0.502 C33.447,0.502 33,0.949 33,1.502 L33,2.503 C32.449,2.505 32.004,2.95 32.004,3.502 L32.004,5.502 C32.004,7.319 33.229,8.839 34.891,9.325 C34.532,10.578 33.387,11.504 32.02,11.504 C32.006,11.504 31.995,11.511 31.981,11.512 L19.018,11.512 C16.261,11.512 14.018,13.755 14.018,16.512 C14.018,19.268 16.259,21.509 19.014,21.512 C19.015,21.512 19.015,21.512 19.016,21.512 L45.018,21.512 C45.03,21.512 45.039,21.506 45.049,21.506 C46.688,21.524 48.016,22.86 48.016,24.502 C48.016,24.503 48.017,24.505 48.017,24.506 C48.017,24.507 48.016,24.509 48.016,24.51 L48.016,33.715 L32.545,23.659 C32.213,23.444 31.787,23.444 31.455,23.659 L11.455,36.659 C11.426,36.679 11.41,36.708 11.383,36.729 C11.329,36.773 11.281,36.819 11.237,36.873 C11.197,36.922 11.163,36.972 11.133,37.026 C11.103,37.082 11.079,37.138 11.06,37.2 C11.039,37.266 11.027,37.331 11.019,37.399 C11.017,37.434 11,37.463 11,37.498 L11,41.498 C11,41.527 11.014,41.552 11.017,41.581 C11.023,41.648 11.038,41.713 11.057,41.779 C11.077,41.843 11.098,41.904 11.13,41.963 C11.144,41.989 11.145,42.018 11.161,42.043 C11.181,42.072 11.21,42.088 11.232,42.115 C11.275,42.169 11.321,42.217 11.375,42.261 C11.424,42.301 11.475,42.335 11.529,42.365 C11.585,42.394 11.64,42.418 11.701,42.437 C11.767,42.458 11.834,42.471 11.904,42.478 C11.937,42.482 11.966,42.498 12,42.498 C12.028,42.498 12.053,42.484 12.081,42.481 C12.15,42.476 12.215,42.46 12.282,42.441 C12.346,42.421 12.406,42.4 12.465,42.369 C12.49,42.354 12.52,42.353 12.545,42.337 L14,41.391 L14,54.647 C13.692,54.557 13.363,54.499 13.001,54.499 C12.466,54.499 11.964,54.64 11.528,54.886 C10.995,54.053 10.06,53.499 9,53.499 C7.94,53.499 7.005,54.053 6.472,54.886 C6.036,54.64 5.534,54.499 4.999,54.499 C3.346,54.499 2,55.845 2,57.499 L2,59.499 L1,59.499 C0.447,59.499 0,59.946 0,60.499 C0,61.052 0.447,61.499 1,61.499 L63,61.499 C63.553,61.499 64,61.052 64,60.499 C64,59.946 63.553,59.498 63,59.498 Z M34.004,5.502 L34.004,4.502 L38.004,4.502 L38.004,5.502 C38.004,6.605 37.107,7.502 36.004,7.502 C34.901,7.502 34.004,6.604 34.004,5.502 Z M50.999,56.498 C51.552,56.498 52.001,56.946 52.001,57.498 C52.001,58.051 52.448,58.498 53.001,58.498 C53.554,58.498 54.001,58.051 54.001,57.498 L54.001,56.496 C54.001,55.945 54.449,55.498 55,55.498 C55.551,55.498 55.999,55.945 55.999,56.496 L55.999,57.498 C55.999,58.051 56.446,58.498 56.999,58.498 C57.552,58.498 57.999,58.051 57.999,57.498 C57.999,56.946 58.448,56.498 59.001,56.498 C59.83,56.498 60,56.897 60,57.498 L60,59.498 L50,59.498 L50,57.498 C50,56.946 50.448,56.498 50.999,56.498 Z M32,25.69 L51,38.041 L51,39.655 L32.545,27.659 C32.213,27.444 31.787,27.444 31.455,27.659 L13,39.655 L13,38.041 L32,25.69 Z M32,29.69 L48,40.09 L48,57.497 L48,59.497 L36,59.497 L36,48.497 C36,47.944 35.553,47.497 35,47.497 L29,47.497 C28.447,47.497 28,47.944 28,48.497 L28,59.497 L16,59.497 L16,57.497 L16,40.091 L32,29.69 Z M30,49.498 L34,49.498 L34,59.498 L30,59.498 L30,49.498 Z M4,57.498 C4,56.946 4.448,56.498 4.999,56.498 C5.552,56.498 6.001,56.946 6.001,57.498 C6.001,58.051 6.448,58.498 7.001,58.498 C7.554,58.498 8.001,58.051 8.001,57.498 L8.001,56.496 C8.001,55.945 8.449,55.498 9,55.498 C9.551,55.498 9.999,55.945 9.999,56.496 L9.999,57.498 C9.999,58.051 10.446,58.498 10.999,58.498 C11.552,58.498 11.999,58.051 11.999,57.498 C11.999,56.946 12.448,56.498 13.001,56.498 C13.83,56.498 14,56.897 14,57.498 L14,59.498 L4,59.498 L4,57.498 Z" id="Shape"></path>
            </g>
        </g>
    </g>
</svg>