<?xml version="1.0" encoding="UTF-8"?>
<svg width="60px" height="60px" viewBox="0 0 60 60" version="1.1" xmlns="http://www.w3.org/2000/svg" xmlns:xlink="http://www.w3.org/1999/xlink">
    <!-- Generator: Sketch 52.4 (67378) - http://www.bohemiancoding.com/sketch -->
    <title>Group 2</title>
    <desc>Created with Sketch.</desc>
    <g id="Page-1" stroke="none" stroke-width="1" fill="none" fill-rule="evenodd">
        <g id="Group" fill="#000000">
            <g>
                <path d="M53.991,38.27 L49.152,37.581 L46,35.467 L46,34.973 C48.5151761,33.0940989 49.9974852,30.1394863 50,27 L50,26 C51.6545736,26.0055914 53.1405702,24.9884278 53.7341439,23.4439813 C54.3277177,21.8995347 53.9054372,20.1489672 52.673,19.045 C54.1687668,18.6727904 55.1556706,17.2479602 54.9782503,15.7168233 C54.80083,14.1856863 53.5142483,13.0242959 51.973,13.004 C51.7884518,8.06854141 48.4449432,3.8140479 43.693,2.468 C43.0723412,0.97652768 41.6154588,0.00479894586 40,0.00479894586 C38.3845412,0.00479894586 36.9276588,0.97652768 36.307,2.468 C31.5562324,3.81331632 28.2129358,8.06592499 28.027,13 C26.4857517,13.0202959 25.19917,14.1816863 25.0217497,15.7128233 C24.8443294,17.2439602 25.8312332,18.6687904 27.327,19.041 C26.0914606,20.1443836 25.6671227,21.8969266 26.2610888,23.4432828 C26.8550549,24.9896389 28.3435106,26.0074647 30,26 L30,27 C30.0020413,30.1395985 31.4844508,33.0944113 34,34.973 L34,35.5 L30.807,37.88 L25.521,39.007 C25.365,39.042 25.21,39.078 25.084,39.118 C24.958,39.158 24.819,39.201 24.684,39.25 C24.651,39.26 24.618,39.271 24.584,39.283 C24.45,39.332 24.328,39.383 24.206,39.437 C24.132,39.469 24.068,39.515 23.995,39.55 L23.995,24 C23.9916939,21.2399468 21.7550532,19.0033061 18.995,19 L5,19 C2.23994685,19.0033061 0.00330611633,21.2399468 4.4408921e-16,24 L4.4408921e-16,55 C0.00330611633,57.7600532 2.23994685,59.9966939 5,60 L19,60 C19.3358458,60.0003359 19.6708711,59.9668333 20,59.9 L20,60 L22,60 L22,58.974 C23.2545681,58.037602 23.9954393,56.5654908 24,55 L24,41.878 C24.3137507,41.6312524 24.6566582,41.4240302 25.021,41.261 C25.107,41.223 25.185,41.191 25.271,41.161 L25.285,41.155 C25.3111151,41.1485171 25.3368262,41.1405032 25.362,41.131 C25.447,41.101 25.531,41.068 25.645,41.037 C25.759,41.006 25.854,40.98 25.945,40.959 L30.328,40.024 L31,48.083 C31.0283844,48.4235446 31.2286995,48.7260168 31.5311645,48.8850489 C31.8336294,49.0440811 32.1963611,49.0376515 32.493,48.868 L36.912,46.342 L39,52.173 L39,60 L41,60 L41,52.173 L43.085,46.342 L47.5,48.868 C47.7971002,49.0409724 48.1622225,49.0492056 48.4668175,48.8898009 C48.7714124,48.7303962 48.9727709,48.4257047 49,48.083 L49.7,39.683 L53.709,40.253 C56.1623841,40.6203485 57.9830242,42.7193247 58,45.2 L58,60 L60,60.0000025 L60,45.2 C59.9789311,41.7246513 57.4283254,38.7831141 53.991,38.27 Z M22,55 C22,56.6568542 20.6568542,58 19,58 L5,58 C3.34314575,58 2,56.6568542 2,55 L2,24 C2,22.3431458 3.34314575,21 5,21 L19,21 C20.6568542,21 22,22.3431458 22,24 L22,55 Z M42.025,43 L37.975,43 L36.088,36.181 C38.5816803,37.2730544 41.4183197,37.2730544 43.912,36.181 L42.025,43 Z M41.44,45 L40,49.023 L38.56,45 L41.44,45 Z M50,24 L50,20 C51.1045695,20 52,20.8954305 52,22 C52,23.1045695 51.1045695,24 50,24 Z M38,4 C38,2.8954305 38.8954305,2 40,2 C41.1045695,2 42,2.8954305 42,4 L42,9 L38,9 L38,4 Z M32,7.668 L32,11 L34,11 L34,5.767 C34.6209116,5.32563488 35.2923377,4.96004339 36,4.678 L36,10 C36,10.5522847 36.4477153,11 37,11 L43,11 C43.5522847,11 44,10.5522847 44,10 L44,4.678 C44.7078821,4.95999256 45.3793525,5.32594397 46,5.768 L46,11 L48,11 L48,7.668 C49.1919123,9.19919462 49.8807574,11.061731 49.972,13 L30.028,13 C30.1192426,11.061731 30.8080877,9.19919462 32,7.668 Z M27,16.068 C27.0022016,15.4779034 27.4808996,15.0005464 28.071,15 L51.929,15 C52.5046782,15.0021706 52.9758609,15.4586431 52.9962833,16.0339631 C53.0167057,16.609283 52.5790753,17.0980161 52.005,17.141 L40,18 L28,17.144 C27.4369901,17.1036448 27.000652,16.635454 27,16.071 L27,16.068 Z M28,22 C28.0049282,20.8974783 28.8974783,20.0049282 30,20 L30,24 C28.8954305,24 28,23.1045695 28,22 Z M32,27 L31.9999965,19.431 L39.929,20 C39.953,20 39.976,20 40,20 C40.024,20 40.047,20 40.071,20 L48.0000025,19.431 L48,27 C48.0021068,29.6722963 46.6669707,32.168404 44.443,33.65 C41.7441694,35.4170122 38.2548306,35.4170122 35.556,33.65 C33.3322731,32.1682989 31.997491,29.6721514 32,27 Z M32.866,46.354 L32.276,39.276 L34.426,37.676 L36.264,44.319 L36.2,44.343 L36.232,44.431 L32.866,46.354 Z M47.134,46.354 L43.768,44.43 L43.8,44.342 L43.736,44.318 L45.594,37.6 L47.743,39.041 L47.134,46.354 Z" id="Shape" fill-rule="nonzero"></path>
                <path d="M35.5,23 C36.1066934,23 36.6536478,22.6345367 36.8858193,22.0740251 C37.1179908,21.5135136 36.9896572,20.8683368 36.5606602,20.4393398 C36.1316632,20.0103428 35.4864864,19.8820092 34.9259749,20.1141807 C34.3654633,20.3463522 34,20.8933066 34,21.5 C34,22.3284271 34.6715729,23 35.5,23 Z" id="Path"></path>
                <path d="M44.5,23 C45.1066934,23 45.6536478,22.6345367 45.8858193,22.0740251 C46.1179908,21.5135136 45.9896572,20.8683368 45.5606602,20.4393398 C45.1316632,20.0103428 44.4864864,19.8820092 43.9259749,20.1141807 C43.3654633,20.3463522 43,20.8933066 43,21.5 C43,22.3284271 43.6715729,23 44.5,23 Z" id="Path"></path>
                <rect id="Rectangle" x="35" y="49" width="2" height="2"></rect>
                <rect id="Rectangle" x="35" y="58" width="2" height="2"></rect>
                <path d="M37,29.0000181 L39.117,29 C40.5309226,29.0022437 41.9374266,28.7956824 43.291,28.387 L42.709,26.473 C41.5440821,26.824283 40.3337292,27.0018599 39.117,27 L37,27 L37,29.0000181 Z" id="Path"></path>
                <polygon id="Path" points="51 54 43 54 43 56 51 56 51 60 53 60 53 49 51 49"></polygon>
                <rect id="Rectangle" x="27" y="49" width="2" height="11"></rect>
                <path d="M19,24 L5,24 C4.44771525,24 4,24.4477153 4,25 L4,32 C4,32.5522847 4.44771525,33 5,33 L19,33 C19.5522847,33 20,32.5522847 20,32 L20,25 C20,24.4477153 19.5522847,24 19,24 Z M18,31 L6,31 L6,26 L18,26 L18,31 Z" id="Shape" fill-rule="nonzero"></path>
                <rect id="Rectangle" x="5" y="35" width="2" height="2"></rect>
                <rect id="Rectangle" x="9" y="35" width="2" height="2"></rect>
                <rect id="Rectangle" x="13" y="35" width="2" height="2"></rect>
                <rect id="Rectangle" x="17" y="35" width="2" height="2"></rect>
                <path d="M19.071,42.758 L16.243,39.929 C16.0555073,39.7414506 15.8011948,39.6360566 15.536,39.636 C15.4359284,39.6401223 15.3370952,39.6596865 15.243,39.694 C12.2212538,38.3450646 8.68061793,38.9992193 6.34035178,41.3388199 C4.00008563,43.6784206 3.34492409,47.2188702 4.693,50.241 C4.57923002,50.5922696 4.67018239,50.977661 4.929,51.241 L7.757,54.07 C7.94449273,54.2575494 8.19880519,54.3629434 8.464,54.363 C8.56407157,54.3588777 8.66290484,54.3393135 8.757,54.305 C11.7787462,55.6539354 15.3193821,54.9997807 17.6596482,52.6601801 C19.9999144,50.3205794 20.6550759,46.7801298 19.307,43.758 C19.42077,43.4067304 19.3298176,43.021339 19.071,42.758 Z M12,41 C12.5241019,40.9997843 13.0460536,41.0670028 13.553,41.2 L6.2,48.553 C6.06700284,48.0460536 5.99978433,47.5241019 6,47 C6.00330738,43.6876624 8.68766243,41.0033074 12,41 Z M7.05,50.535 L15.536,42.05 L16.95,43.465 L8.464,51.95 L7.05,50.535 Z M12,53 C11.4758981,53.0002157 10.9539464,52.9329972 10.447,52.8 L17.8,45.447 C17.9329972,45.9539464 18.0002157,46.4758981 18,47 C17.9966926,50.3123376 15.3123376,52.9966926 12,53 Z" id="Shape" fill-rule="nonzero"></path>
                <rect id="Rectangle" x="4" y="54" width="2" height="2"></rect>
                <rect id="Rectangle" x="18" y="54" width="2" height="2"></rect>
            </g>
        </g>
        <g id="Group-2"></g>
    </g>
</svg>