<?xml version="1.0" encoding="UTF-8"?>
<svg width="97px" height="82px" viewBox="0 0 97 82" version="1.1" xmlns="http://www.w3.org/2000/svg" xmlns:xlink="http://www.w3.org/1999/xlink">
    <!-- Generator: Sketch 52.4 (67378) - http://www.bohemiancoding.com/sketch -->
    <title>noun_heavy construction equipment_1484919</title>
    <desc>Created with Sketch.</desc>
    <g id="Page-1" stroke="none" stroke-width="1" fill="none" fill-rule="evenodd">
        <g id="noun_heavy-construction-equipment_1484919" fill="#000000" fill-rule="nonzero">
            <path d="M57.8652344,65.3540039 C54.7900391,65.3540039 52.2890625,67.8554687 52.2890625,70.9301758 C52.2890625,74.0048829 54.7900391,76.5063477 57.8652344,76.5063477 C60.9404297,76.5063477 63.4414063,74.0048829 63.4414063,70.9301758 C63.4414063,67.8554687 60.9404297,65.3540039 57.8652344,65.3540039 Z M57.8652344,73.5063477 C56.444336,73.5063477 55.2890625,72.350586 55.2890625,70.9301758 C55.2890625,69.5097656 56.4443359,68.3540039 57.8652344,68.3540039 C59.2861329,68.3540039 60.4414063,69.5097656 60.4414063,70.9301758 C60.4414063,72.350586 59.2861328,73.5063477 57.8652344,73.5063477 Z M44.1748047,65.3540039 C41.0996094,65.3540039 38.5986328,67.8554687 38.5986328,70.9301758 C38.5986328,74.0048829 41.0996094,76.5063477 44.1748047,76.5063477 C47.25,76.5063477 49.7509766,74.0048829 49.7509766,70.9301758 C49.7509766,67.8554687 47.25,65.3540039 44.1748047,65.3540039 Z M44.1748047,73.5063477 C42.7539063,73.5063477 41.5986328,72.350586 41.5986328,70.9301758 C41.5986328,69.5097656 42.7539062,68.3540039 44.1748047,68.3540039 C45.5957032,68.3540039 46.7509766,69.5097656 46.7509766,70.9301758 C46.7509766,72.350586 45.5957031,73.5063477 44.1748047,73.5063477 Z M85.2460938,65.3540039 C82.1708985,65.3540039 79.6699219,67.8554687 79.6699219,70.9301758 C79.6699219,74.0048829 82.1708985,76.5063477 85.2460938,76.5063477 C88.3212891,76.5063477 90.8222657,74.0048829 90.8222657,70.9301758 C90.8222657,67.8554687 88.3212891,65.3540039 85.2460938,65.3540039 Z M85.2460938,73.5063477 C83.8251954,73.5063477 82.6699219,72.350586 82.6699219,70.9301758 C82.6699219,69.5097656 83.8251953,68.3540039 85.2460938,68.3540039 C86.6669923,68.3540039 87.8222657,69.5097656 87.8222657,70.9301758 C87.8222657,72.350586 86.6669922,73.5063477 85.2460938,73.5063477 Z M71.5556641,65.3540039 C68.4804688,65.3540039 65.9794922,67.8554687 65.9794922,70.9301758 C65.9794922,74.0048829 68.4804688,76.5063477 71.5556641,76.5063477 C74.6308594,76.5063477 77.131836,74.0048829 77.131836,70.9301758 C77.131836,67.8554687 74.6308594,65.3540039 71.5556641,65.3540039 Z M71.5556641,73.5063477 C70.1347657,73.5063477 68.9794922,72.350586 68.9794922,70.9301758 C68.9794922,69.5097656 70.1347656,68.3540039 71.5556641,68.3540039 C72.9765626,68.3540039 74.131836,69.5097656 74.131836,70.9301758 C74.131836,72.350586 72.9765625,73.5063477 71.5556641,73.5063477 Z M92.0971069,62.0679932 C92.0999145,62.0303955 92.1083984,61.9943848 92.1083984,61.9560547 L92.1083984,49.046875 C92.1083984,48.2182617 91.4365234,47.546875 90.6083984,47.546875 L68.5830078,47.546875 L68.5830078,24.5878906 C68.5830078,23.7592773 67.9111328,23.0878906 67.0830078,23.0878906 L50.1318359,23.0878906 C49.6416015,23.0878906 49.1816406,23.3276367 48.9013671,23.7304687 L47.1635741,26.2248535 L26.4712524,3.4202881 C25.1281738,1.7044678 23.0437622,0.5957031 20.7011718,0.5957031 C17.9172363,0.5957031 15.4910278,2.1561889 14.250061,4.4481201 C14.2463379,4.4554443 14.2409057,4.4613037 14.2373047,4.46875 L1.6798706,30.2635498 C1.2988892,30.8849487 1.067688,31.6000977 1.0169678,32.3682251 C0.9969483,32.4660034 0.9863282,32.5671997 0.9863282,32.6708984 L0.9863282,49.1943359 C0.9863282,55.6616211 6.248047,60.9228515 12.7148438,60.9228515 L28.7695313,60.9228515 C29.3457032,60.9228515 29.8710938,60.5927734 30.1210938,60.0742187 C30.3710938,59.5551757 30.3017579,58.9389648 29.9423829,58.4882812 L10.3232422,33.8603516 L21.6312256,16.1630249 L37.3125,41.265625 L37.3125,61.9560547 C37.3125,61.9943848 37.3209839,62.0303955 37.3237915,62.0679932 C34.3760986,63.9232788 32.4072266,67.1973267 32.4072266,70.9301758 C32.4072266,76.7055664 37.1054688,81.4042969 42.8808594,81.4042969 L86.5400391,81.4042969 C92.3154297,81.4042969 97.0136719,76.7055664 97.0136719,70.9301758 C97.0136719,67.1973267 95.0447998,63.9232788 92.0971069,62.0679932 Z M27.8751831,9.4326782 L45.4038086,28.7506103 L38.8811035,38.112915 L24.0831909,14.4244385 C25.9979248,13.423645 27.4196167,11.6054077 27.8751831,9.4326782 Z M40.3125,41.3061523 L47.4679565,31.0356445 L59.1699218,31.0356445 L59.1699218,45.4291992 L40.3125,45.4291992 L40.3125,41.3061523 Z M20.7011719,3.5957031 C21.8377686,3.5957031 22.8655396,4.045166 23.6390381,4.7640991 L24.0736694,5.243103 C24.6641845,5.9834594 25.0322265,6.9083862 25.0322265,7.9267578 C25.0322265,10.3149414 23.0888671,12.2578125 20.7011718,12.2578125 C18.3134765,12.2578125 16.3701171,10.3149414 16.3701171,7.9267578 C16.3701171,5.5385742 18.3134766,3.5957031 20.7011719,3.5957031 Z M5.6220703,31.0356445 C6.5234375,31.0356445 7.2568359,31.7690429 7.2568359,32.6708984 C7.2568359,33.5727539 6.5234375,34.3066406 5.6220703,34.3066406 C4.7197265,34.3066406 3.9863281,33.5727539 3.9863281,32.6708984 C3.9863281,32.519226 4.0137329,32.3751831 4.0525512,32.2357177 C4.0563964,32.2282104 4.062683,32.2229614 4.0664062,32.215332 L4.3231811,31.6878662 C4.6220703,31.2941895 5.0903931,31.0356445 5.6220703,31.0356445 Z M25.6572266,57.9228516 L12.7148438,57.9228516 C7.9023438,57.9228516 3.9863282,54.0073243 3.9863282,49.194336 L3.9863282,36.9937744 C4.4968262,37.1876221 5.0443116,37.3066406 5.6220704,37.3066406 C6.6900025,37.3066406 7.6624146,36.928833 8.4469605,36.3195801 L25.6572266,57.9228516 Z M9.3027954,29.8855591 C8.5436401,28.8850098 7.3946533,28.2130737 6.0786743,28.0818482 L14.2236938,11.3507691 C15.1686401,13.1310425 16.826416,14.4713746 18.8133544,15.0023194 L9.3027954,29.8855591 Z M40.3125,48.4291992 L60.6699219,48.4291992 C61.4980469,48.4291992 62.1699219,47.7578125 62.1699219,46.9291992 L62.1699219,29.5356445 C62.1699219,28.7070312 61.4980469,28.0356445 60.6699219,28.0356445 L49.5580444,28.0356445 L50.915039,26.0878906 L65.5830078,26.0878906 L65.5830078,49.046875 C65.5830078,49.8754883 66.2548828,50.546875 67.0830078,50.546875 L89.1083984,50.546875 L89.1083984,60.7878418 C88.2849121,60.5790405 87.4275512,60.4560547 86.540039,60.4560547 L42.8808594,60.4560547 C41.9933472,60.4560547 41.1359864,60.5790405 40.3125,60.7878418 L40.3125,48.4291992 Z M86.5400391,78.4042969 L42.8808594,78.4042969 C38.7597656,78.4042969 35.4072266,75.0512696 35.4072266,70.9301758 C35.4072266,66.809082 38.7597657,63.4560547 42.8808594,63.4560547 L86.5400391,63.4560547 C90.6611329,63.4560547 94.0136719,66.809082 94.0136719,70.9301758 C94.0136719,75.0512696 90.6611328,78.4042969 86.5400391,78.4042969 Z M55.7890625,51.4995117 C55.7890625,50.6708984 56.4609375,49.9995117 57.2890625,49.9995117 L60.6699219,49.9995117 C61.4980469,49.9995117 62.1699219,50.6708984 62.1699219,51.4995117 C62.1699219,52.328125 61.4980469,52.9995117 60.6699219,52.9995117 L57.2890625,52.9995117 C56.4609375,52.9995117 55.7890625,52.328125 55.7890625,51.4995117 Z" id="Shape"></path>
        </g>
    </g>
</svg>